<svg xmlns="http://www.w3.org/2000/svg" viewBox="0 0 64 64"><title>email-text-document-pencil</title><g id="email-text-document-pencil"><polygon points="49.01 14.28 62 23.8 62 61.57 2 61.57 2 23.8 14.59 14.57 32 2.43 49.01 14.28" fill="#de3d3a"/><polygon points="56 29 39 43 25 43 8 29 8 2 56 2 56 29" fill="#fff"/><polygon points="62 62 2 62 2 25 3 25 26 43 39 43 62 24 62 62" fill="#ff504d"/><polygon points="24 17 24 41 14 34 14 17 24 17" fill="#ffcb47"/><polygon points="14 17 19 8 24 17 14 17" fill="#e6e6e6"/><rect x="14" y="17" width="10" height="4" fill="#5ce7ff"/><polyline points="56.23 20 62 24.23 62 62 2 62 2 24.23 7.77 20" fill="none" stroke="#3e3948" stroke-miterlimit="10" stroke-width="2"/><polyline points="2 62 24 43.12 40 43.12 62 62" fill="none" stroke="#3e3948" stroke-miterlimit="10" stroke-width="2"/><line x1="62" y1="24.23" x2="38" y2="43.11" fill="none" stroke="#3e3948" stroke-miterlimit="10" stroke-width="2"/><line x1="2" y1="24.23" x2="26" y2="43.11" fill="none" stroke="#3e3948" stroke-miterlimit="10" stroke-width="2"/><polyline points="8 29 8 2 56 2 56 29" fill="none" stroke="#3e3948" stroke-miterlimit="10" stroke-width="2"/><polyline points="14 34 14 17 19 8 24 17 24 41" fill="none" stroke="#3e3948" stroke-miterlimit="10" stroke-width="2"/><line x1="14" y1="17" x2="24" y2="17" fill="none" stroke="#3e3948" stroke-miterlimit="10" stroke-width="2"/><line x1="19" y1="38" x2="19" y2="21" fill="none" stroke="#3e3948" stroke-miterlimit="10" stroke-width="2"/><line x1="22" y1="7" x2="51" y2="7" fill="none" stroke="#3e3948" stroke-miterlimit="10" stroke-width="2"/><line x1="25" y1="11" x2="51" y2="11" fill="none" stroke="#3e3948" stroke-miterlimit="10" stroke-width="2"/><line x1="28" y1="15" x2="51" y2="15" fill="none" stroke="#3e3948" stroke-miterlimit="10" stroke-width="2"/><line x1="28" y1="19" x2="51" y2="19" fill="none" stroke="#3e3948" stroke-miterlimit="10" stroke-width="2"/><line x1="28" y1="23" x2="51" y2="23" fill="none" stroke="#3e3948" stroke-miterlimit="10" stroke-width="2"/><line x1="28" y1="39" x2="38" y2="39" fill="none" stroke="#3e3948" stroke-miterlimit="10" stroke-width="2"/><line x1="28" y1="27" x2="51" y2="27" fill="none" stroke="#3e3948" stroke-miterlimit="10" stroke-width="2"/><line x1="28" y1="31" x2="48" y2="31" fill="none" stroke="#3e3948" stroke-miterlimit="10" stroke-width="2"/><line x1="28" y1="35" x2="43" y2="35" fill="none" stroke="#3e3948" stroke-miterlimit="10" stroke-width="2"/><line x1="14" y1="21" x2="24" y2="21" fill="none" stroke="#3e3948" stroke-miterlimit="10" stroke-width="2"/></g></svg>